<?xml version="1.0" encoding="UTF-8" standalone="no"?>
<!-- Created with Inkscape (http://www.inkscape.org/) -->

<svg
   xmlns:dc="http://purl.org/dc/elements/1.1/"
   xmlns:cc="http://creativecommons.org/ns#"
   xmlns:rdf="http://www.w3.org/1999/02/22-rdf-syntax-ns#"
   xmlns:svg="http://www.w3.org/2000/svg"
   xmlns="http://www.w3.org/2000/svg"
   xmlns:xlink="http://www.w3.org/1999/xlink"
   xmlns:sodipodi="http://sodipodi.sourceforge.net/DTD/sodipodi-0.dtd"
   xmlns:inkscape="http://www.inkscape.org/namespaces/inkscape"
   width="48"
   height="48"
   id="svg2"
   sodipodi:version="0.32"
   inkscape:version="0.48.4 r9939"
   version="1.0"
   inkscape:export-filename="/home/hbons/Desktop/Gaim Refresh/status/32/available32.png"
   inkscape:export-xdpi="90"
   inkscape:export-ydpi="90"
   sodipodi:docname="user-online.svg"
   inkscape:output_extension="org.inkscape.output.svg.inkscape">
  <defs
     id="defs4">
    <filter
       inkscape:collect="always"
       id="filter10542"
       x="-0.129375"
       width="1.25875"
       y="-0.29571429"
       height="1.5914286">
      <feGaussianBlur
         inkscape:collect="always"
         stdDeviation="0.8625"
         id="feGaussianBlur10544" />
    </filter>
    <linearGradient
       id="linearGradient3286"
       inkscape:collect="always">
      <stop
         id="stop3288"
         offset="0"
         style="stop-color:#459000;stop-opacity:1" />
      <stop
         id="stop3290"
         offset="1"
         style="stop-color:#204300;stop-opacity:1" />
    </linearGradient>
    <linearGradient
       id="linearGradient11259"
       inkscape:collect="always">
      <stop
         id="stop11261"
         offset="0"
         style="stop-color:#ffffff;stop-opacity:1;" />
      <stop
         id="stop11263"
         offset="1"
         style="stop-color:#ffffff;stop-opacity:0;" />
    </linearGradient>
    <linearGradient
       id="linearGradient2851">
      <stop
         style="stop-color:#73d216;stop-opacity:1;"
         offset="0"
         id="stop2853" />
      <stop
         style="stop-color:#5ca911;stop-opacity:1;"
         offset="1"
         id="stop2855" />
    </linearGradient>
    <linearGradient
       inkscape:collect="always"
       id="linearGradient3149">
      <stop
         style="stop-color:#eeeeec;stop-opacity:1;"
         offset="0"
         id="stop3151" />
      <stop
         style="stop-color:#eeeeec;stop-opacity:0;"
         offset="1"
         id="stop3153" />
    </linearGradient>
    <linearGradient
       inkscape:collect="always"
       xlink:href="#linearGradient2851"
       id="linearGradient8691"
       gradientUnits="userSpaceOnUse"
       gradientTransform="matrix(1.5072317,0,0,1.4498176,-3.5365923,-1.9812655)"
       x1="6.878005"
       y1="11.789385"
       x2="12.233074"
       y2="27.77807" />
    <linearGradient
       inkscape:collect="always"
       xlink:href="#linearGradient3286"
       id="linearGradient8693"
       gradientUnits="userSpaceOnUse"
       gradientTransform="matrix(1.5072317,0,0,1.4498176,-3.5365923,-1.9812655)"
       x1="15.893391"
       y1="15.213944"
       x2="26.533659"
       y2="28.579245" />
    <linearGradient
       inkscape:collect="always"
       xlink:href="#linearGradient3149"
       id="linearGradient8695"
       gradientUnits="userSpaceOnUse"
       gradientTransform="matrix(1.4354594,0,0,1.3809007,-2.2525739,-0.76851484)"
       x1="11.127699"
       y1="10.823074"
       x2="30.341434"
       y2="31.325201" />
    <radialGradient
       inkscape:collect="always"
       xlink:href="#linearGradient11259"
       id="radialGradient8697"
       gradientUnits="userSpaceOnUse"
       gradientTransform="matrix(1.023438,0,0,0.8870879,-0.2709505,0.7064648)"
       cx="11.736404"
       cy="7.3689327"
       fx="11.800528"
       fy="1.1734189"
       r="9.975256" />
    <linearGradient
       y2="609.50507"
       x2="302.85715"
       y1="366.64789"
       x1="302.85715"
       gradientTransform="matrix(3.4289406,0,0,1.969706,-1977.4912,-872.8854)"
       gradientUnits="userSpaceOnUse"
       id="linearGradient8432"
       xlink:href="#linearGradient5048"
       inkscape:collect="always" />
    <linearGradient
       id="linearGradient5048">
      <stop
         style="stop-color:black;stop-opacity:0;"
         offset="0"
         id="stop5050" />
      <stop
         id="stop5056"
         offset="0.5"
         style="stop-color:black;stop-opacity:1;" />
      <stop
         style="stop-color:black;stop-opacity:0;"
         offset="1"
         id="stop5052" />
    </linearGradient>
    <radialGradient
       r="117.14286"
       fy="486.64789"
       fx="605.71429"
       cy="486.64789"
       cx="605.71429"
       gradientTransform="matrix(2.7515457,0,0,1.969706,-1568.5757,-873.7569)"
       gradientUnits="userSpaceOnUse"
       id="radialGradient8434"
       xlink:href="#linearGradient5060"
       inkscape:collect="always" />
    <linearGradient
       inkscape:collect="always"
       id="linearGradient5060">
      <stop
         style="stop-color:black;stop-opacity:1;"
         offset="0"
         id="stop5062" />
      <stop
         style="stop-color:black;stop-opacity:0;"
         offset="1"
         id="stop5064" />
    </linearGradient>
    <radialGradient
       r="117.14286"
       fy="488.07956"
       fx="602.66046"
       cy="488.07956"
       cx="602.66046"
       gradientTransform="matrix(-2.751545,0,0,1.969706,92.22831,-876.5339)"
       gradientUnits="userSpaceOnUse"
       id="radialGradient8436"
       xlink:href="#linearGradient5060"
       inkscape:collect="always" />
    <linearGradient
       y2="35.5"
       x2="33.392853"
       y1="39.42857"
       x1="35"
       gradientTransform="translate(1.0000045,-1.9999938)"
       gradientUnits="userSpaceOnUse"
       id="linearGradient8438"
       xlink:href="#linearGradient3229"
       inkscape:collect="always" />
    <linearGradient
       id="linearGradient3229"
       inkscape:collect="always">
      <stop
         id="stop3231"
         offset="0"
         style="stop-color:#fcaf3e;stop-opacity:1;" />
      <stop
         id="stop3233"
         offset="1"
         style="stop-color:#f57900;stop-opacity:1" />
    </linearGradient>
    <linearGradient
       y2="37"
       x2="17.930208"
       y1="40.005974"
       x1="17.930208"
       gradientTransform="matrix(1.023417,0,0,1,1.8360845,-5.9999938)"
       gradientUnits="userSpaceOnUse"
       id="linearGradient8440"
       xlink:href="#linearGradient3064"
       inkscape:collect="always" />
    <linearGradient
       id="linearGradient3064"
       inkscape:collect="always">
      <stop
         id="stop3066"
         offset="0"
         style="stop-color:#f6f6f6;stop-opacity:1" />
      <stop
         id="stop3068"
         offset="1"
         style="stop-color:#d3d7cf;stop-opacity:1" />
    </linearGradient>
    <linearGradient
       y2="54.428574"
       x2="32.321426"
       y1="18.714285"
       x1="19.464285"
       gradientTransform="translate(1.0000045,-2.9999938)"
       gradientUnits="userSpaceOnUse"
       id="linearGradient8442"
       xlink:href="#linearGradient3229"
       inkscape:collect="always" />
    <linearGradient
       y2="21.843487"
       x2="21.781342"
       y1="35.345104"
       x1="26.431057"
       gradientUnits="userSpaceOnUse"
       id="linearGradient8444"
       xlink:href="#linearGradient3820"
       inkscape:collect="always" />
    <linearGradient
       id="linearGradient3820"
       inkscape:collect="always">
      <stop
         id="stop3822"
         offset="0"
         style="stop-color:#fca11c;stop-opacity:1" />
      <stop
         id="stop3824"
         offset="1"
         style="stop-color:#f57900;stop-opacity:0" />
    </linearGradient>
    <linearGradient
       y2="42.10305"
       x2="5.126524"
       y1="40.499928"
       x1="5.126524"
       gradientUnits="userSpaceOnUse"
       id="linearGradient8446"
       xlink:href="#linearGradient8344"
       inkscape:collect="always" />
    <linearGradient
       inkscape:collect="always"
       id="linearGradient8344">
      <stop
         style="stop-color:#729fcf;stop-opacity:1;"
         offset="0"
         id="stop8346" />
      <stop
         style="stop-color:#4983c1;stop-opacity:1"
         offset="1"
         id="stop8348" />
    </linearGradient>
    <linearGradient
       y2="42.10305"
       x2="5.126524"
       y1="40.499928"
       x1="5.126524"
       gradientUnits="userSpaceOnUse"
       id="linearGradient8448"
       xlink:href="#linearGradient8334"
       inkscape:collect="always" />
    <linearGradient
       id="linearGradient8334"
       inkscape:collect="always">
      <stop
         id="stop8336"
         offset="0"
         style="stop-color:#729fcf;stop-opacity:1;" />
      <stop
         id="stop8338"
         offset="1"
         style="stop-color:#4983c1;stop-opacity:1" />
    </linearGradient>
    <linearGradient
       inkscape:collect="always"
       xlink:href="#linearGradient3229"
       id="linearGradient3253"
       gradientUnits="userSpaceOnUse"
       gradientTransform="translate(47.307079,-2.398872)"
       x1="19.464285"
       y1="18.714285"
       x2="32.321426"
       y2="54.428574" />
    <linearGradient
       inkscape:collect="always"
       xlink:href="#linearGradient3064"
       id="linearGradient3256"
       gradientUnits="userSpaceOnUse"
       gradientTransform="matrix(1.023417,0,0,1,48.143159,-5.398872)"
       x1="17.930208"
       y1="40.005974"
       x2="17.930208"
       y2="37" />
    <linearGradient
       inkscape:collect="always"
       xlink:href="#linearGradient3229"
       id="linearGradient3259"
       gradientUnits="userSpaceOnUse"
       gradientTransform="translate(47.307079,-1.398872)"
       x1="35"
       y1="39.42857"
       x2="33.392853"
       y2="35.5" />
    <linearGradient
       inkscape:collect="always"
       xlink:href="#linearGradient3820"
       id="linearGradient3591"
       gradientUnits="userSpaceOnUse"
       x1="26.431057"
       y1="35.345104"
       x2="21.781342"
       y2="21.843487" />
    <linearGradient
       inkscape:collect="always"
       xlink:href="#linearGradient3229"
       id="linearGradient3593"
       gradientUnits="userSpaceOnUse"
       gradientTransform="matrix(0.70483215,0,0,0.7964912,53.868832,0.81834626)"
       x1="19.464285"
       y1="18.714285"
       x2="32.321426"
       y2="54.428574" />
    <linearGradient
       inkscape:collect="always"
       xlink:href="#linearGradient3064"
       id="linearGradient3595"
       gradientUnits="userSpaceOnUse"
       gradientTransform="matrix(0.7213372,0,0,0.7964912,54.458128,-1.5711273)"
       x1="17.930208"
       y1="40.005974"
       x2="17.930208"
       y2="37" />
    <linearGradient
       inkscape:collect="always"
       xlink:href="#linearGradient3229"
       id="linearGradient3597"
       gradientUnits="userSpaceOnUse"
       gradientTransform="matrix(0.70483215,0,0,0.7964912,53.868832,1.6148375)"
       x1="35"
       y1="39.42857"
       x2="33.392853"
       y2="35.5" />
    <linearGradient
       inkscape:collect="always"
       xlink:href="#linearGradient5048"
       id="linearGradient3599"
       gradientUnits="userSpaceOnUse"
       gradientTransform="matrix(3.4289406,0,0,1.969706,-1977.4912,-872.8854)"
       x1="302.85715"
       y1="366.64789"
       x2="302.85715"
       y2="609.50507" />
    <radialGradient
       inkscape:collect="always"
       xlink:href="#linearGradient5060"
       id="radialGradient3601"
       gradientUnits="userSpaceOnUse"
       gradientTransform="matrix(2.7515457,0,0,1.969706,-1568.5757,-873.7569)"
       cx="605.71429"
       cy="486.64789"
       fx="605.71429"
       fy="486.64789"
       r="117.14286" />
    <radialGradient
       inkscape:collect="always"
       xlink:href="#linearGradient5060"
       id="radialGradient3603"
       gradientUnits="userSpaceOnUse"
       gradientTransform="matrix(-2.751545,0,0,1.969706,92.22831,-876.5339)"
       cx="602.66046"
       cy="488.07956"
       fx="602.66046"
       fy="488.07956"
       r="117.14286" />
    <linearGradient
       inkscape:collect="always"
       xlink:href="#linearGradient5048"
       id="linearGradient3627"
       gradientUnits="userSpaceOnUse"
       gradientTransform="matrix(3.4289406,0,0,1.969706,-1977.4912,-872.8854)"
       x1="302.85715"
       y1="366.64789"
       x2="302.85715"
       y2="609.50507" />
    <radialGradient
       inkscape:collect="always"
       xlink:href="#linearGradient5060"
       id="radialGradient3629"
       gradientUnits="userSpaceOnUse"
       gradientTransform="matrix(2.7515457,0,0,1.969706,-1568.5757,-873.7569)"
       cx="605.71429"
       cy="486.64789"
       fx="605.71429"
       fy="486.64789"
       r="117.14286" />
    <radialGradient
       inkscape:collect="always"
       xlink:href="#linearGradient5060"
       id="radialGradient3631"
       gradientUnits="userSpaceOnUse"
       gradientTransform="matrix(-2.751545,0,0,1.969706,92.22831,-876.5339)"
       cx="602.66046"
       cy="488.07956"
       fx="602.66046"
       fy="488.07956"
       r="117.14286" />
    <linearGradient
       inkscape:collect="always"
       xlink:href="#linearGradient3229"
       id="linearGradient3633"
       gradientUnits="userSpaceOnUse"
       gradientTransform="matrix(0.70483215,0,0,0.7964912,53.868832,1.6148375)"
       x1="35"
       y1="39.42857"
       x2="33.392853"
       y2="35.5" />
    <linearGradient
       inkscape:collect="always"
       xlink:href="#linearGradient3064"
       id="linearGradient3635"
       gradientUnits="userSpaceOnUse"
       gradientTransform="matrix(0.7213372,0,0,0.7964912,54.458128,-1.5711273)"
       x1="17.930208"
       y1="40.005974"
       x2="17.930208"
       y2="37" />
    <linearGradient
       inkscape:collect="always"
       xlink:href="#linearGradient3229"
       id="linearGradient3637"
       gradientUnits="userSpaceOnUse"
       gradientTransform="matrix(0.70483215,0,0,0.7964912,53.868832,0.81834626)"
       x1="19.464285"
       y1="18.714285"
       x2="32.321426"
       y2="54.428574" />
    <linearGradient
       inkscape:collect="always"
       xlink:href="#linearGradient3820"
       id="linearGradient3639"
       gradientUnits="userSpaceOnUse"
       x1="26.431057"
       y1="35.345104"
       x2="21.781342"
       y2="21.843487" />
  </defs>
  <sodipodi:namedview
     id="base"
     pagecolor="#ffffff"
     bordercolor="#666666"
     borderopacity="1.0"
     inkscape:pageopacity="0.0"
     inkscape:pageshadow="2"
     inkscape:zoom="7.4642637"
     inkscape:cx="32.489152"
     inkscape:cy="25.414903"
     inkscape:document-units="px"
     inkscape:current-layer="layer1"
     showgrid="true"
     fill="#eeeeec"
     inkscape:window-width="1434"
     inkscape:window-height="844"
     inkscape:window-x="267"
     inkscape:window-y="183"
     inkscape:window-maximized="0">
    <inkscape:grid
       type="xygrid"
       visible="true"
       enabled="true"
       id="grid5549" />
  </sodipodi:namedview>
  <metadata
     id="metadata7">
    <rdf:RDF>
      <cc:Work
         rdf:about="">
        <dc:format>image/svg+xml</dc:format>
        <dc:type
           rdf:resource="http://purl.org/dc/dcmitype/StillImage" />
        <dc:title></dc:title>
      </cc:Work>
    </rdf:RDF>
  </metadata>
  <g
     inkscape:label="Layer 1"
     inkscape:groupmode="layer"
     id="layer1">
    <rect
       inkscape:label="48x48"
       y="0.88709337"
       x="-1.009599"
       height="46.175591"
       width="47.999985"
       id="rect6284"
       style="opacity:0;fill:#babdb6;fill-opacity:1;fill-rule:nonzero;stroke:none;stroke-width:2;marker:none;visibility:visible;display:inline;overflow:visible;enable-background:accumulate"
       inkscape:export-filename="/home/massimo/AreaLavoro/icon32.png"
       inkscape:export-xdpi="60"
       inkscape:export-ydpi="60" />
    <path
       style="opacity:0.75;fill:#2e3436;fill-opacity:1;fill-rule:evenodd;stroke:none;display:inline;filter:url(#filter10542);enable-background:new"
       d="m 52.000003,144.5 c 0,1.932 -3.584001,3.5 -8,3.5 -4.416,0 -8,-1.568 -8,-3.5 0,-1.932 3.584,-3.5 8,-3.5 4.415999,0 8,1.568 8,3.5 z"
       id="path10560"
       transform="matrix(2.0999997,0,0,2.0200035,-67.922074,-254.25482)"
       inkscape:connector-curvature="0"
       inkscape:export-filename="/home/massimo/AreaLavoro/icon32.png"
       inkscape:export-xdpi="60"
       inkscape:export-ydpi="60" />
    <path
       style="fill:url(#linearGradient8691);fill-opacity:1;fill-rule:evenodd;stroke:url(#linearGradient8693);stroke-width:0.98081023;stroke-miterlimit:4;stroke-opacity:1;display:inline;enable-background:new"
       d="m 44.427866,23.495661 c 0,11.15045 -9.407994,20.200039 -20.999982,20.200039 -11.591992,0 -20.9999853,-9.049589 -20.9999853,-20.200039 0,-11.150425 9.4079933,-20.2000557 20.9999853,-20.2000557 11.591988,0 20.999982,9.0496307 20.999982,20.2000557 z"
       id="path10562"
       inkscape:connector-curvature="0"
       inkscape:export-filename="/home/massimo/AreaLavoro/icon32.png"
       inkscape:export-xdpi="60"
       inkscape:export-ydpi="60" />
    <path
       style="opacity:0.6;fill:url(#linearGradient8695);fill-opacity:1;fill-rule:evenodd;stroke:#ffffff;stroke-width:0.98081028;stroke-miterlimit:4;stroke-opacity:1;display:inline;enable-background:new"
       d="m 43.427886,23.497411 c 0,10.620394 -8.95999,19.239838 -19.999993,19.239838 -11.039994,0 -19.9999937,-8.619444 -19.9999937,-19.239838 0,-10.620404 8.9599997,-19.2398154 19.9999937,-19.2398154 11.040003,0 19.999993,8.6194114 19.999993,19.2398154 z"
       id="path10564"
       inkscape:connector-curvature="0"
       inkscape:export-filename="/home/massimo/AreaLavoro/icon32.png"
       inkscape:export-xdpi="60"
       inkscape:export-ydpi="60" />
    <path
       transform="matrix(1.6929358,-0.940267,0.97741699,1.6285901,-7.2326152,16.707075)"
       d="m 21.781414,10.983024 a 9.975256,9.975256 0 1 1 -19.9505119,0 9.975256,9.975256 0 1 1 19.9505119,0 z"
       sodipodi:ry="9.975256"
       sodipodi:rx="9.975256"
       sodipodi:cy="10.983024"
       sodipodi:cx="11.806158"
       id="path11257"
       style="fill:url(#radialGradient8697);fill-opacity:1;stroke:none;display:inline;enable-background:new"
       sodipodi:type="arc"
       inkscape:export-filename="/home/massimo/AreaLavoro/icon32.png"
       inkscape:export-xdpi="60"
       inkscape:export-ydpi="60" />
    <g
       transform="matrix(0.6174131,0,0,0.6077484,64.020946,8.9640773)"
       id="g6767" />
    <g
       id="g3605"
       transform="matrix(0.99999973,0,0,1.0477298,-47.146804,0.70735782)"
       inkscape:export-filename="/home/massimo/AreaLavoro/icon32.png"
       inkscape:export-xdpi="60"
       inkscape:export-ydpi="60">
      <g
         id="g8378"
         transform="matrix(-0.0123454,0,0,0.01322006,62.024156,31.532266)"
         style="opacity:0.31004363;display:inline">
        <rect
           y="-150.69685"
           x="-1566.019"
           height="478.35718"
           width="1655.6886"
           id="rect8380"
           style="opacity:0.40206185;fill:url(#linearGradient3627);fill-opacity:1;fill-rule:nonzero;stroke:none;stroke-width:1;marker:none;visibility:visible;display:inline;overflow:visible" />
        <path
           sodipodi:nodetypes="cccc"
           id="path8382"
           d="m 89.669502,-151.55183 c 0,0 0,478.33079 0,478.33079 C 231.36729,327.67941 432.22584,219.6093 432.22576,87.582782 c 0,-132.026537 -158.12409,-239.134592 -342.556258,-239.134612 z"
           style="opacity:0.40206185;fill:url(#radialGradient3629);fill-opacity:1;fill-rule:nonzero;stroke:none;stroke-width:1;marker:none;visibility:visible;display:inline;overflow:visible"
           inkscape:connector-curvature="0" />
        <path
           style="opacity:0.40206185;fill:url(#radialGradient3631);fill-opacity:1;fill-rule:nonzero;stroke:none;stroke-width:1;marker:none;visibility:visible;display:inline;overflow:visible"
           d="m -1566.0191,-154.32884 c 0,0 0,478.33079 0,478.33079 -141.6978,0.90045 -342.5562,-107.16966 -342.5562,-239.196172 0,-132.026537 158.124,-239.134598 342.5562,-239.134618 z"
           id="path8384"
           sodipodi:nodetypes="cccc"
           inkscape:connector-curvature="0" />
      </g>
      <path
         style="fill:url(#linearGradient3633);fill-opacity:1;fill-rule:evenodd;stroke:#ce5c00;stroke-width:0.74926138;stroke-linecap:butt;stroke-linejoin:miter;stroke-miterlimit:4;stroke-opacity:1;stroke-dasharray:none;stroke-dashoffset:0;marker:none;visibility:visible;display:inline;overflow:visible;enable-background:accumulate"
         d="m 62.513352,9.1815041 16.590819,0 c 1.079535,0 2.605531,0.9823059 2.605531,2.2024809 l 0.704833,19.489775 c 0,1.220174 0.547591,2.202481 -0.531944,2.202481 l -20.778903,0 c -1.079536,0 -1.948615,-0.982307 -1.948615,-2.202481 l 0.0058,-0.794968 1.395921,-18.703696 c 0,-1.220175 0.876945,-2.1935919 1.95648,-2.1935919 z"
         id="path8386"
         sodipodi:nodetypes="cccccccccc"
         inkscape:connector-curvature="0" />
      <path
         style="fill:url(#linearGradient3635);fill-opacity:1;fill-rule:evenodd;stroke:none;stroke-width:1;marker:none;visibility:visible;display:inline;overflow:visible;enable-background:accumulate"
         d="m 61.000775,27.899048 21.766176,0 c -0.566573,0 -1.371681,0.837904 -1.371681,1.878711 l 0,1.021525 c 0,1.040805 0.799716,1.878711 1.348915,1.878711 l -21.515277,0 c -1.040199,-0.01778 -1.721419,-0.837906 -1.721419,-1.878711 l 0,-1.137088 c 0,-1.040806 0.264298,-1.772038 1.493286,-1.763148 z"
         id="path8388"
         sodipodi:nodetypes="ccccccccc"
         inkscape:connector-curvature="0" />
      <path
         sodipodi:nodetypes="ccccccccc"
         id="path8390"
         d="m 62.483446,9.1815041 17.473586,0 c 1.332478,0 1.567807,0.7486572 1.729073,1.6885679 l 1.433262,14.803876 c 0,0.935467 0.003,1.826855 -1.202021,1.826855 l -20.71384,0 c -1.552971,0 -2.050117,0.497996 -2.050117,2.789683 l 1.436209,-19.420414 c 0.09046,-0.9621344 0.844656,-1.6885679 1.893848,-1.6885679 z"
         style="fill:url(#linearGradient3637);fill-opacity:1;fill-rule:evenodd;stroke:#ce5c00;stroke-width:0.74926126;stroke-linecap:butt;stroke-linejoin:miter;stroke-miterlimit:4;stroke-opacity:1;stroke-dashoffset:0;marker:none;visibility:visible;display:inline;overflow:visible;enable-background:accumulate"
         inkscape:connector-curvature="0" />
      <path
         style="fill:none;stroke:#ffffff;stroke-width:0.74926126;stroke-linecap:butt;stroke-linejoin:miter;stroke-miterlimit:4;stroke-opacity:0.58108108;stroke-dashoffset:0;marker:none;visibility:visible;display:inline;overflow:visible;enable-background:accumulate"
         d="m 62.564446,9.9779953 17.333598,0 c 0.988097,0 1.02675,0.3949087 1.105417,1.2203607 l 1.424043,14.445399 c 0,1.006661 0.07106,1.069502 -0.917036,1.069502 l -19.866998,0 c -0.798766,0 -1.073812,1.42e-4 -1.518802,0.131119 l 1.144902,-15.64602 c -0.0039,-0.745447 0.471737,-1.2203607 1.294876,-1.2203607 z"
         id="path8392"
         sodipodi:nodetypes="ccccccccc"
         inkscape:connector-curvature="0" />
      <path
         transform="matrix(0.4802316,0,0,0.4469152,60.210898,6.8808345)"
         d="m 35.96143,26.534258 c 0,6.889964 -5.58542,12.475384 -12.475384,12.475384 -6.889964,0 -12.475384,-5.58542 -12.475384,-12.475384 0,-6.889964 5.58542,-12.475384 12.475384,-12.475384 6.889964,0 12.475384,5.58542 12.475384,12.475384 z"
         sodipodi:ry="12.475384"
         sodipodi:rx="12.475384"
         sodipodi:cy="26.534258"
         sodipodi:cx="23.486046"
         id="path8394"
         style="opacity:0.72925762;fill:none;stroke:#ce5c00;stroke-width:1.61731732px;stroke-linecap:butt;stroke-linejoin:miter;stroke-miterlimit:4;stroke-opacity:0.80630631;stroke-dasharray:none;stroke-dashoffset:0;marker:none;visibility:visible;display:inline;overflow:visible;enable-background:accumulate"
         sodipodi:type="arc" />
      <path
         sodipodi:type="arc"
         style="opacity:0.72925762;fill:none;stroke:#ffffff;stroke-width:1.61731732px;stroke-linecap:butt;stroke-linejoin:miter;stroke-miterlimit:4;stroke-opacity:0.80630631;stroke-dasharray:none;stroke-dashoffset:0;marker:none;visibility:visible;display:inline;overflow:visible;enable-background:accumulate"
         id="path8396"
         sodipodi:cx="23.486046"
         sodipodi:cy="26.534258"
         sodipodi:rx="12.475384"
         sodipodi:ry="12.475384"
         d="m 35.96143,26.534258 c 0,6.889964 -5.58542,12.475384 -12.475384,12.475384 -6.889964,0 -12.475384,-5.58542 -12.475384,-12.475384 0,-6.889964 5.58542,-12.475384 12.475384,-12.475384 6.889964,0 12.475384,5.58542 12.475384,12.475384 z"
         transform="matrix(0.4802316,0,0,0.4469152,59.506065,6.0843433)" />
      <path
         sodipodi:type="arc"
         style="fill:url(#linearGradient3639);fill-opacity:1;fill-rule:evenodd;stroke:#f57900;stroke-width:1.72730803px;stroke-linecap:butt;stroke-linejoin:miter;stroke-miterlimit:4;stroke-opacity:0.91441441;stroke-dasharray:none;stroke-dashoffset:0;marker:none;visibility:visible;display:inline;overflow:visible;enable-background:accumulate"
         id="path8398"
         sodipodi:cx="23.486046"
         sodipodi:cy="26.534258"
         sodipodi:rx="12.475384"
         sodipodi:ry="12.475384"
         d="m 35.96143,26.534258 c 0,6.889964 -5.58542,12.475384 -12.475384,12.475384 -6.889964,0 -12.475384,-5.58542 -12.475384,-12.475384 0,-6.889964 5.58542,-12.475384 12.475384,-12.475384 6.889964,0 12.475384,5.58542 12.475384,12.475384 z"
         transform="matrix(0.45340499,0,0,0.41499263,60.506272,7.329631)" />
      <path
         transform="matrix(0.39548484,0,0,0.35114764,61.848844,9.0237105)"
         d="m 35.96143,26.534258 c 0,6.889964 -5.58542,12.475384 -12.475384,12.475384 -6.889964,0 -12.475384,-5.58542 -12.475384,-12.475384 0,-6.889964 5.58542,-12.475384 12.475384,-12.475384 6.889964,0 12.475384,5.58542 12.475384,12.475384 z"
         sodipodi:ry="12.475384"
         sodipodi:rx="12.475384"
         sodipodi:cy="26.534258"
         sodipodi:cx="23.486046"
         id="path8400"
         style="opacity:0.72925762;fill:none;stroke:#ffffff;stroke-width:2.01058936px;stroke-linecap:butt;stroke-linejoin:miter;stroke-miterlimit:4;stroke-opacity:0.80630631;stroke-dasharray:none;stroke-dashoffset:0;marker:none;visibility:visible;display:inline;overflow:visible;enable-background:accumulate"
         sodipodi:type="arc" />
      <g
         transform="matrix(0.69908184,0,0,0.61268556,55.445253,8.2318413)"
         style="fill:#ffffff;fill-opacity:0.6441441"
         id="g8402">
        <path
           id="path8404"
           d="m 54.981628,26.743026 c 0.03548,0.677344 0.362438,1.442404 0,2 -0.05835,0.526189 -0.444815,0.262453 -0.830747,0 -0.0048,-0.836214 0.395563,-1.42859 0.830747,-2 z"
           style="opacity:0.6419214;fill:#ffffff;fill-opacity:0.6441441;fill-rule:evenodd;stroke:none;stroke-width:0.85547471px;marker:none;visibility:visible;display:inline;overflow:visible;enable-background:accumulate"
           sodipodi:nodetypes="cccc"
           transform="matrix(0.7295617,0,0,0.7291246,-16.506378,-7.1786075)"
           inkscape:connector-curvature="0" />
        <path
           style="opacity:0.6419214;fill:#ffffff;fill-opacity:0.6441441;fill-rule:evenodd;stroke:none;stroke-width:0.85547471px;marker:none;visibility:visible;display:inline;overflow:visible;enable-background:accumulate"
           d="m 50.038781,40.901592 c 0,0 0.951967,-0.143678 2.008788,-0.408673 1.056822,-0.264994 2.642053,0.353327 3.170464,0.353327 0.52841,0 1.711775,-0.07393 1.711775,-0.07393 -3.069483,1.189336 -5.614148,0.331989 -6.891027,0.129271 z"
           id="path8406"
           sodipodi:nodetypes="csscc"
           transform="matrix(0.7295617,0,0,0.7291246,-16.506378,-7.1786075)"
           inkscape:connector-curvature="0" />
        <path
           style="opacity:0.6419214;fill:#ffffff;fill-opacity:0.6441441;fill-rule:evenodd;stroke:none;stroke-width:0.85547471px;marker:none;visibility:visible;display:inline;overflow:visible;enable-background:accumulate"
           d="m 58.247943,24.9321 c -0.508583,0.38387 -0.76428,1.355873 -1.296919,2.29079 0,0 -0.430596,0.82607 -0.81325,1.272498 -0.382652,0.446429 -0.382652,1.339286 -0.382652,1.339286 l -1.347426,0.640319 0.454569,1.145395 0.892857,0 0.791841,-0.539304 1.010153,-0.337273 1.482668,0.151523 1.490808,0.842349 1.844363,0.67288 -0.01628,-1.262691 c 0.09025,-0.07228 -0.892972,-4.51867 -4.110732,-6.215772 z"
           id="path8408"
           sodipodi:nodetypes="ccsccccccccccc"
           transform="matrix(0.7295617,0,0,0.7291246,-16.506378,-7.1786075)"
           inkscape:connector-curvature="0" />
        <path
           style="opacity:0.6419214;fill:#ffffff;fill-opacity:0.6441441;fill-rule:evenodd;stroke:none;stroke-width:0.85547471px;marker:none;visibility:visible;display:inline;overflow:visible;enable-background:accumulate"
           d="m 55.740387,32.534169 1,0 1,-0.445181 1,-0.05051 1,0.495689 1,0 1,1 0,1 0,1 -0.533238,2 -0.466762,1.423856 -1,1.06066 -1,-0.484516 -1,-4 -2,0 -1,-1 c 0,0 0,-1 0,-1 l 1,-1 z"
           id="path8410"
           transform="matrix(0.7295617,0,0,0.7291246,-16.506378,-7.1786075)"
           inkscape:connector-curvature="0" />
        <path
           style="opacity:0.6419214;fill:#ffffff;fill-opacity:0.6441441;fill-rule:evenodd;stroke:none;stroke-width:0.85547471px;marker:none;visibility:visible;display:inline;overflow:visible;enable-background:accumulate"
           d="m 48.267756,39.30284 c 0,0 0.418874,0.906814 0.890858,0.245116 0.409003,-0.573401 0.880167,-2.152965 0.880167,-2.600266 0,-0.963482 -0.009,-2.783337 -0.009,-2.783337 l -0.429271,-1.459896 -2.397177,-0.914818 -1.592124,0.340642 -0.572437,1.109471 c 0.07734,1.880605 0.86494,2.77765 2.254013,2.841782 l 0.3578,1.284561 0.617162,1.936745 z"
           id="path8412"
           sodipodi:nodetypes="csscccccccc"
           transform="matrix(0.7295617,0,0,0.7291246,-16.506378,-7.1786075)"
           inkscape:connector-curvature="0" />
        <path
           style="opacity:0.6419214;fill:#ffffff;fill-opacity:0.6441441;fill-rule:evenodd;stroke:none;stroke-width:0.85547471px;marker:none;visibility:visible;display:inline;overflow:visible;enable-background:accumulate"
           d="m 49.62165,24.264042 c 0,0 -0.212183,1.909137 1.787817,0.909137 0,0 -0.989847,2.050508 -0.989847,2.050508 l -2.363706,1.393908 -1.6566,0.545431 -0.989847,1.010153 -0.554308,1 1.564461,-0.06066 -2.010153,1.06066 c 0,0 -0.0089,-5.243406 5.212183,-7.909137 z"
           id="path8414"
           sodipodi:nodetypes="cccccccccc"
           transform="matrix(0.7295617,0,0,0.7291246,-16.506378,-7.1786075)"
           inkscape:connector-curvature="0" />
        <path
           style="opacity:0.6419214;fill:#ffffff;fill-opacity:0.6441441;fill-rule:evenodd;stroke:none;stroke-width:0.85547471px;marker:none;visibility:visible;display:inline;overflow:visible;enable-background:accumulate"
           d="m 51.173075,23.811076 c 0,0 1.268922,1.74372 5,-0.08814 0,0 -4.049366,-0.418373 -5,0.08814 z"
           id="path8416"
           transform="matrix(0.7295617,0,0,0.7291246,-16.506378,-7.1786075)"
           inkscape:connector-curvature="0" />
      </g>
    </g>
  </g>
</svg>
